<svg width="39" height="39" viewBox="0 0 39 39" fill="none" xmlns="http://www.w3.org/2000/svg">
<path d="M38 19.5272C38 20.5105 37.9243 21.4804 37.7775 22.4236C37.7731 22.4592 37.7642 22.4992 37.7597 22.5348C37.4349 22.4547 37.1013 22.4147 36.7542 22.4147C34.4095 22.4147 32.5098 24.3145 32.5098 26.6592C32.5098 28.1941 33.324 29.5377 34.5386 30.2852C33.3907 31.8958 31.9803 33.3151 30.3786 34.4807C30.3341 34.5119 30.2896 34.543 30.2452 34.5742C29.5111 33.3195 28.1452 32.4742 26.5835 32.4742C24.2388 32.4742 22.3346 34.3739 22.3346 36.7186C22.3346 37.079 22.3791 37.4305 22.4636 37.7686C21.5115 37.9243 20.5283 38 19.5272 38C18.5573 38 17.6007 37.9288 16.6709 37.782C16.6264 37.7731 16.5819 37.7686 16.5374 37.7597C16.6219 37.426 16.6664 37.079 16.6664 36.7186C16.6664 34.3739 14.7666 32.4742 12.422 32.4742C10.8692 32.4742 9.50778 33.3062 8.76922 34.5475C7.15864 33.3907 5.73937 31.9803 4.5737 30.3786C4.55145 30.3475 4.5292 30.3208 4.51141 30.2896C5.73492 29.5422 6.54911 28.1941 6.54911 26.6592C6.54911 24.3145 4.64933 22.4147 2.30464 22.4147C1.95761 22.4147 1.61948 22.4547 1.29469 22.5348C1.29469 22.5215 1.29024 22.5126 1.29024 22.4992C1.13452 21.5293 1.04999 20.5372 1.04999 19.5272C1.04999 18.4594 1.13897 17.4183 1.31249 16.4039C1.62837 16.4796 1.96206 16.5196 2.30464 16.5196C4.64933 16.5196 6.54911 14.6198 6.54911 12.2751C6.54911 10.7624 5.75716 9.43215 4.56925 8.68024C5.72157 7.09191 7.1275 5.69043 8.72028 4.53811C8.74698 4.52031 8.76922 4.50251 8.79592 4.48471C9.54337 5.70377 10.887 6.51797 12.422 6.51797C14.7666 6.51797 16.6664 4.61374 16.6664 2.26905C16.6664 1.93092 16.6264 1.60613 16.5552 1.29024C17.5207 1.13452 18.5173 1.04999 19.5272 1.04999C20.5194 1.04999 21.4982 1.12562 22.4503 1.28134C22.3747 1.59723 22.3346 1.93092 22.3346 2.26905C22.3346 4.61374 24.2388 6.51797 26.5835 6.51797C28.1274 6.51797 29.4755 5.69487 30.2185 4.46247C30.2674 4.48916 30.3119 4.52476 30.3564 4.5559C31.9447 5.70823 33.3373 7.1008 34.4852 8.68469C33.2973 9.43659 32.5098 10.7624 32.5098 12.2751C32.5098 14.6198 34.4095 16.5196 36.7542 16.5196C37.0924 16.5196 37.4216 16.4796 37.7375 16.4039C37.911 17.4183 38 18.4639 38 19.5272Z" stroke="url(#paint0_linear_1_381)" stroke-width="1.5" stroke-miterlimit="10"/>
<path d="M30.0227 19.5272C30.0227 20.0878 29.9782 20.6395 29.8937 21.1734C29.6401 22.7884 29.0172 24.2833 28.1096 25.5647C27.4422 26.5123 26.6236 27.3399 25.6893 28.0206C24.4168 28.946 22.9264 29.5911 21.3113 29.867C20.7329 29.9649 20.1368 30.0182 19.5272 30.0182C18.9755 30.0182 18.4327 29.9738 17.9033 29.8937C16.2616 29.6401 14.7444 29.0038 13.4497 28.0829C12.5199 27.42 11.7012 26.6102 11.0339 25.6892C10.0906 24.3901 9.43661 22.8641 9.16967 21.2134C9.08068 20.6617 9.03619 20.1011 9.03619 19.5272C9.03619 18.9132 9.08958 18.3081 9.19191 17.7209C9.46776 16.137 10.0951 14.6732 10.9983 13.4141C11.6612 12.4887 12.4709 11.6745 13.3919 11.0116C14.6777 10.0817 16.1859 9.43658 17.8232 9.16964C18.3794 9.08065 18.9488 9.03172 19.5317 9.03172C20.1056 9.03172 20.6707 9.07621 21.2179 9.16519C22.8641 9.43214 24.3857 10.0817 25.6804 11.0205C26.6013 11.6878 27.4066 12.4976 28.0696 13.423C28.9638 14.6732 29.5912 16.1236 29.867 17.6942C29.9693 18.2903 30.0227 18.9043 30.0227 19.5272Z" stroke="url(#paint1_linear_1_381)" stroke-width="1.5" stroke-miterlimit="10"/>
<path d="M27.104 26.7882C26.6725 27.242 26.2009 27.6558 25.6937 28.025C24.4168 28.9505 22.9308 29.5956 21.3113 29.8714C20.7329 29.9738 20.1367 30.0227 19.5272 30.0227C18.9755 30.0227 18.4371 29.9827 17.9077 29.8981C16.266 29.6445 14.7488 29.0083 13.4497 28.0873C12.9113 27.7003 12.4086 27.2687 11.9503 26.7882C12.155 26.37 12.3952 25.9695 12.6666 25.5914C13.2005 24.8484 13.8501 24.1943 14.5931 23.6605C15.6297 22.913 16.8399 22.3925 18.1524 22.1789C18.6018 22.1033 19.06 22.0677 19.5272 22.0677C19.9899 22.0677 20.4437 22.1033 20.8842 22.1744C22.21 22.388 23.4335 22.913 24.4746 23.6694C25.2132 24.2032 25.8627 24.8573 26.3922 25.6003C26.6636 25.974 26.8994 26.37 27.104 26.7882Z" stroke="url(#paint2_linear_1_381)" stroke-width="1.5" stroke-miterlimit="10"/>
<path d="M23.3579 16.0836C23.3579 16.2882 23.3401 16.4884 23.3089 16.6842C23.2155 17.2759 22.9886 17.8187 22.6594 18.2859C22.4147 18.6329 22.1166 18.9355 21.774 19.1846C21.3113 19.5228 20.764 19.7586 20.1767 19.8609C19.9632 19.8965 19.7452 19.9143 19.5272 19.9143C19.327 19.9143 19.1268 19.9009 18.9354 19.8698C18.3348 19.7764 17.7831 19.545 17.3115 19.2069C16.9734 18.9666 16.6753 18.6685 16.4306 18.3348C16.088 17.8588 15.8477 17.3026 15.7499 16.702C15.7187 16.5018 15.7009 16.2971 15.7009 16.0836C15.7009 15.8611 15.7187 15.6387 15.7588 15.4251C15.8611 14.8467 16.088 14.3128 16.4172 13.8546C16.6575 13.5164 16.9556 13.2183 17.2937 12.9781C17.7653 12.64 18.3126 12.4042 18.9087 12.3063C19.1134 12.2751 19.3181 12.2573 19.5316 12.2573C19.7407 12.2573 19.9454 12.2751 20.1456 12.3063C20.7462 12.4042 21.3024 12.64 21.774 12.9825C22.1077 13.2272 22.4058 13.5209 22.646 13.859C22.9708 14.3128 23.2022 14.8467 23.3 15.4207C23.3401 15.6342 23.3579 15.8567 23.3579 16.0836Z" stroke="url(#paint3_linear_1_381)" stroke-width="1.5" stroke-miterlimit="10"/>
<defs>
<linearGradient id="paint0_linear_1_381" x1="-4" y1="19" x2="42" y2="20" gradientUnits="userSpaceOnUse">
<stop stop-color="#6172D6"/>
<stop offset="1" stop-color="#4ADEDE"/>
</linearGradient>
<linearGradient id="paint1_linear_1_381" x1="-3.5" y1="20" x2="46" y2="20" gradientUnits="userSpaceOnUse">
<stop stop-color="#6172D6"/>
<stop offset="1" stop-color="#4ADEDE"/>
</linearGradient>
<linearGradient id="paint2_linear_1_381" x1="-4" y1="22" x2="28.0519" y2="-1.11453" gradientUnits="userSpaceOnUse">
<stop stop-color="#6172D6"/>
<stop offset="1" stop-color="#4ADEDE"/>
</linearGradient>
<linearGradient id="paint3_linear_1_381" x1="-4.5" y1="20" x2="46" y2="20" gradientUnits="userSpaceOnUse">
<stop stop-color="#6172D6"/>
<stop offset="1" stop-color="#4ADEDE"/>
</linearGradient>
</defs>
</svg>
